<!--?xml version="1.0" standalone="no"?-->
              <svg id="sw-js-blob-svg" viewBox="0 0 100 100" xmlns="http://www.w3.org/2000/svg" version="1.1">
                    <defs> 
                        <linearGradient id="sw-gradient" x1="0" x2="1" y1="1" y2="0">
                            <stop id="stop1" stop-color="rgba(248, 117, 55, 1)" offset="0%"></stop>
                            <stop id="stop2" stop-color="rgba(251, 168, 31, 1)" offset="100%"></stop>
                        </linearGradient>
                    </defs>
                <path fill="url(#sw-gradient)" d="M21.8,-27.1C28.6,-20.3,34.6,-13.7,36.4,-6C38.2,1.6,35.8,10.5,31.6,18.6C27.3,26.8,21.3,34.3,14.4,34.7C7.6,35,-0.1,28.2,-8.4,24.5C-16.7,20.9,-25.6,20.4,-30.8,15.7C-36,11,-37.4,2.1,-34.2,-4.2C-30.9,-10.5,-23,-14.2,-16.5,-21.1C-10,-28,-5,-38,1.3,-39.5C7.5,-41,15,-33.9,21.8,-27.1Z" width="100%" height="100%" transform="translate(50 50)" stroke-width="0" style="transition: all 0.3s ease 0s;"></path>
              </svg>